<svg width="32" height="32" viewBox="0 0 32 32" fill="none" xmlns="http://www.w3.org/2000/svg">
<g clip-path="url(#clip0_1_717)">
<path d="M31.3984 9.2041C31.3984 7.22461 29.7886 5.61426 27.8096 5.61426H24.1284V5.13379C24.1284 2.5791 22.0498 0.5 19.4946 0.5H12.5073C9.95214 0.5 7.87354 2.5791 7.87354 5.13379V5.61426H4.19239C2.21339 5.61426 0.603516 7.22461 0.603516 9.2041V10.831C0.603516 12.9765 1.37586 14.9437 2.65479 16.4736V25.8213C2.65479 28.9521 5.20215 31.5 8.3335 31.5H23.6685C26.7998 31.5 29.3472 28.9521 29.3472 25.8213V16.4736C30.6261 14.9437 31.3984 12.9765 31.3984 10.831V9.2041ZM10.8735 5.13379C10.8735 4.2334 11.6064 3.5 12.5073 3.5H19.4946C20.3955 3.5 21.1284 4.2334 21.1284 5.13379V5.61426H10.8735V5.13379ZM3.60352 9.2041C3.60352 8.8789 3.86768 8.61426 4.19239 8.61426H27.8096C28.1343 8.61426 28.3984 8.87891 28.3984 9.2041V10.831C28.3984 12.3829 27.7835 13.7911 26.7893 14.8346C26.7859 14.8379 26.783 14.8418 26.7796 14.8452C25.7209 15.9509 24.2343 16.6436 22.5864 16.6436H21.8472V16.2334C21.8472 15.4053 21.1758 14.7334 20.3472 14.7334C19.5186 14.7334 18.8472 15.4053 18.8472 16.2334V16.6436H13.1548V16.2334C13.1548 15.4053 12.4834 14.7334 11.6548 14.7334C10.8262 14.7334 10.1548 15.4053 10.1548 16.2334V16.6436H9.41553C7.76764 16.6436 6.28107 15.9509 5.22235 14.8452C5.21899 14.8418 5.21606 14.838 5.21271 14.8346C4.21845 13.7911 3.60352 12.3829 3.60352 10.8311V9.2041ZM23.6685 28.5H8.3335C6.85645 28.5 5.65479 27.2978 5.65479 25.8213V18.7888C6.79725 19.3311 8.0691 19.6436 9.41553 19.6436H10.1548V20.0537C10.1548 20.8819 10.8262 21.5537 11.6548 21.5537C12.4834 21.5537 13.1548 20.8818 13.1548 20.0537V19.6436H18.8472V20.0537C18.8472 20.8819 19.5186 21.5537 20.3472 21.5537C21.1758 21.5537 21.8472 20.8818 21.8472 20.0537V19.6436H22.5864C23.9329 19.6436 25.2047 19.3311 26.3472 18.7888V25.8213C26.3472 27.2978 25.1455 28.5 23.6685 28.5Z" fill="#F4876B"/>
</g>
<defs>
<clipPath id="clip0_1_717">
<rect width="32" height="32" fill="white"/>
</clipPath>
</defs>
</svg>
