<svg width="187" height="37" viewBox="0 0 187 37" fill="none" xmlns="http://www.w3.org/2000/svg">
<path d="M59.5864 9.99513C62.2594 9.99513 64.3977 10.8855 66.1797 12.7255L66.2984 12.8442L68.6744 10.5293L68.6149 10.4106C66.4767 8.03638 63.2097 6.73053 59.4677 6.73053C52.1024 6.73053 46.6972 11.8352 46.6972 18.8986C46.6972 25.9621 52.0429 31.0666 59.4082 31.0666C63.1504 31.0666 66.4172 29.7608 68.6149 27.3271L68.6744 27.2083L66.2984 24.8936L66.1797 25.0123C64.3977 26.8523 62.1999 27.8021 59.5864 27.8021C54.2407 27.8021 50.3799 24.0626 50.3799 18.8986C50.3799 13.7346 54.3002 9.99513 59.5864 9.99513ZM78.8314 27.9801C75.3269 27.9801 72.8917 25.4278 72.8917 21.8664C72.8917 18.2457 75.3269 15.7527 78.8314 15.7527C82.3359 15.7527 84.7712 18.2457 84.7712 21.8664C84.7712 25.4871 82.3359 27.9801 78.8314 27.9801ZM78.8314 12.6662C73.3074 12.6662 69.3277 16.5243 69.3277 21.8664C69.3277 27.2083 73.3074 31.0666 78.8314 31.0666C84.3554 31.0666 88.3349 27.2083 88.3349 21.8664C88.3349 16.5243 84.2959 12.6662 78.8314 12.6662ZM99.0267 27.9801C95.5222 27.9801 93.0274 25.4278 93.0274 21.807C93.0274 18.1863 95.4627 15.634 99.0267 15.634C102.531 15.634 104.966 18.1863 104.966 21.807C104.966 25.4278 102.531 27.9801 99.0267 27.9801ZM104.966 15.1591C103.481 13.4378 101.343 12.5475 98.7892 12.5475C93.3244 12.5475 89.5229 16.3463 89.5229 21.807C89.5229 27.2678 93.3244 31.0666 98.7892 31.0666C101.403 31.0666 103.66 30.0576 105.085 28.2768V30.8291H108.471V5.54341H104.907L104.966 15.1591ZM119.875 15.634C122.786 15.634 124.983 17.5927 125.399 20.4418H114.411C114.767 17.5927 116.905 15.634 119.875 15.634ZM119.875 12.6662C114.648 12.6662 110.906 16.5243 110.906 21.8664C110.906 27.2678 114.826 31.0666 120.529 31.0666C123.499 31.0666 125.934 30.0576 127.597 28.1581L127.656 28.0988L125.696 25.8433L125.577 25.9621C124.33 27.3271 122.667 28.0393 120.588 28.0393C117.262 28.0393 114.826 26.1401 114.351 23.1129H128.607V22.9942C128.666 22.6974 128.666 22.2819 128.666 21.9851C128.726 16.465 125.043 12.6662 119.875 12.6662ZM144.941 25.4871C143.872 27.0898 142.209 27.9801 140.13 27.9801C136.507 27.9801 134.071 25.4871 134.071 21.8664C134.071 18.2457 136.566 15.7527 140.13 15.7527C142.209 15.7527 143.872 16.5837 144.941 18.2457L145.001 18.3644L147.733 16.643L147.673 16.5243C146.248 14.0907 143.516 12.6662 140.189 12.6662C134.606 12.6662 130.507 16.5243 130.507 21.8664C130.507 27.2083 134.606 31.0666 140.189 31.0666C143.516 31.0666 146.248 29.6421 147.673 27.1491L147.733 27.0303L145.001 25.3684L144.941 25.4871ZM158.424 27.9801C154.92 27.9801 152.485 25.4278 152.485 21.8664C152.485 18.2457 154.92 15.7527 158.424 15.7527C161.929 15.7527 164.364 18.2457 164.364 21.8664C164.364 25.4871 161.929 27.9801 158.424 27.9801ZM158.424 12.6662C152.9 12.6662 148.921 16.5243 148.921 21.8664C148.921 27.2083 152.9 31.0666 158.424 31.0666C163.948 31.0666 167.928 27.2083 167.928 21.8664C167.928 16.5243 163.889 12.6662 158.424 12.6662ZM182.896 12.6662L176.838 26.5556L170.898 12.6662H167.275L175.056 30.4136L175.115 30.4731H178.56L186.341 12.6662H182.896ZM19.0325 0.902832C8.61963 0.902832 0.138184 9.29443 0.138184 19.5322V19.6161L3.32923 21.4623H3.41321C5.42861 20.1196 7.86388 19.6161 10.2991 20.0357C11.9786 20.3714 13.5742 21.1266 14.8338 22.3014L15.4216 22.8049L15.7575 22.1336C16.0934 21.4623 16.4293 20.8749 16.7652 20.2875C16.9332 20.0357 17.1011 19.8679 17.2691 19.6161L17.605 19.1965L17.1851 18.8609C15.4216 17.4343 13.3222 16.4273 11.0549 16.0077C8.87156 15.5882 6.68823 15.6721 4.67283 16.3434C6.18438 9.71403 12.0626 5.01473 19.0325 5.01473C22.9794 5.01473 26.6742 6.52521 29.4454 9.29443C31.4609 11.2245 32.8044 13.6581 33.3922 16.3434C32.1327 15.9238 30.7889 15.756 29.4454 15.756H29.1934C28.6897 15.756 28.1857 15.8399 27.5979 15.8399H27.5139C27.3459 15.8399 27.0942 15.9238 26.9262 15.9238C26.5902 16.0077 26.3384 16.0077 26.0024 16.0916L25.7504 16.1756C25.4987 16.2595 25.2467 16.3434 24.9948 16.4273H24.9108C24.323 16.5951 23.8191 16.8469 23.2313 17.0986C22.9794 17.1826 22.7274 17.3504 22.4755 17.5182H22.3915C21.1319 18.2735 19.9563 19.1965 19.0325 20.3714L18.9486 20.5392C18.6966 20.8749 18.5287 21.1266 18.3607 21.2944C18.1928 21.4623 18.1088 21.714 17.9409 21.9658L17.8569 22.1336C17.6889 22.3854 17.605 22.6371 17.521 22.8049V22.8889C17.2691 23.3923 17.0171 23.9798 16.8492 24.5672V24.6511C16.4293 25.9938 16.1774 27.4203 16.1774 28.9308V29.0986C16.1774 29.2666 16.1774 29.5183 16.1774 29.6861C16.1774 29.7701 16.1774 29.8538 16.1774 29.9378C16.1774 30.0218 16.1774 30.1896 16.1774 30.2736V30.3573V30.5253C16.1774 30.6931 16.2614 30.9448 16.2614 31.1126C16.6812 33.1266 17.605 35.0566 19.0325 36.8188L19.1165 36.9028L19.2005 36.8188C19.7883 36.1476 21.1319 34.0496 21.2999 32.7908C20.6281 31.5321 20.2922 30.1056 20.2922 28.7631C20.2922 24.0637 23.9871 20.1196 28.7737 19.8679H29.1094C31.0409 19.784 32.9724 20.3714 34.5679 21.4623H34.6519L37.8429 19.6161V19.5322C37.8429 14.5812 35.9114 9.88186 32.3007 6.35738C28.7737 2.8329 24.071 0.902832 19.0325 0.902832Z" fill="black" fill-opacity="0.4"/>
</svg>
