<svg width="154" height="37" viewBox="0 0 154 37" fill="none" xmlns="http://www.w3.org/2000/svg">
<path d="M133.037 18.9028C133.037 13.2101 137.36 9.19801 143.088 9.19801C148.816 9.19801 153.138 13.2101 153.138 18.9028C153.138 24.5956 148.816 28.6076 143.088 28.6076C137.36 28.6076 133.037 24.5414 133.037 18.9028ZM147.465 18.9028C147.465 16.2462 145.789 14.2944 143.142 14.2944C140.494 14.2944 138.819 16.2462 138.819 18.9028C138.819 21.5595 140.494 23.5113 143.142 23.5113C145.789 23.5113 147.465 21.6137 147.465 18.9028ZM129.254 14.4028C129.633 15.1619 129.795 15.9751 129.795 16.8426C129.795 18.9028 128.714 20.8004 126.985 22.2643C129.363 23.4028 130.767 26.1678 130.767 28.7703C130.767 33.6498 126.823 36.9028 120.825 36.9028C114.827 36.9028 110.882 33.7041 110.882 28.7703C110.828 26.0596 112.287 23.5655 114.665 22.2643C112.881 20.8004 111.855 18.9028 111.855 16.8426C111.855 12.5595 115.205 9.41488 120.5 9.41488C123.635 9.41488 124.553 9.95706 126.336 9.95706C127.525 10.0113 128.768 9.68596 129.795 9.03536C130.173 8.81851 130.551 8.65583 130.984 8.65583C131.686 8.65583 132.064 9.36066 132.064 10.2281C132.227 12.1257 131.038 13.8065 129.254 14.4028ZM125.202 28.6076C125.202 26.4391 123.527 24.9209 120.879 24.9209C118.231 24.9209 116.556 26.3848 116.556 28.6076C116.556 30.6678 118.393 32.2943 120.879 32.2943C123.364 32.2943 125.202 30.6678 125.202 28.6076ZM117.366 17.1679C117.421 19.0655 119.042 20.5836 120.987 20.5293C122.824 20.4751 124.229 19.0113 124.337 17.1679C124.337 15.2161 122.932 13.8607 120.879 13.8607C118.826 13.8607 117.366 15.1619 117.366 17.1679ZM108.288 19.2824V26.0596C108.288 27.3606 107.802 27.9028 106.397 27.9028H104.506C103.101 27.9028 102.615 27.3606 102.615 26.0596V19.445C102.615 17.7643 102.344 16.5715 101.75 15.8125C101.048 14.945 99.9669 14.5113 98.886 14.5655C97.7513 14.5113 96.6707 14.9992 95.9142 15.8125C95.2656 16.5715 94.8333 17.7643 94.8333 19.3908V26.0053C94.8333 27.3606 94.2391 27.8486 92.9422 27.8486H91.051C89.7541 27.8486 89.1596 27.3606 89.1596 26.0053V10.8245C89.1596 9.95706 89.5919 9.57753 90.2404 9.57753C91.2129 9.57753 92.5639 10.3908 93.5905 11.9631C95.1578 10.2281 97.3731 9.25223 99.6966 9.25223C102.453 9.25223 104.668 10.2281 106.127 11.8546C107.586 13.4812 108.288 15.704 108.288 19.2824ZM78.7848 3.99318C78.7848 2.25825 80.2436 0.902832 81.9188 0.902832C81.9728 0.902832 81.9728 0.902832 82.0269 0.902832C83.7021 1.01127 84.999 2.47512 84.8908 4.15583C84.7827 5.83656 83.3238 7.13778 81.6487 7.02933C80.0276 6.97513 78.7848 5.61971 78.7848 3.99318ZM79.163 26.0596V11.8004C79.163 10.4992 79.6494 9.90283 81.0542 9.90283H82.9456C84.3504 9.90283 84.8368 10.445 84.8368 11.8004V26.0596C84.8368 27.3606 84.3504 27.9028 82.9456 27.9028H81.0542C79.6494 27.9028 79.163 27.3606 79.163 26.0596ZM69.1662 26.0596V8.16788C69.1662 3.66788 71.6519 1.1197 73.7593 1.1197C74.4076 1.1197 74.84 1.55343 74.84 2.36669V26.0596C74.84 27.4148 74.2998 27.9028 72.9488 27.9028H71.0576C69.7607 27.9028 69.1662 27.4148 69.1662 26.0596ZM45.8228 18.9028C45.8228 13.2101 50.1455 9.19801 55.8734 9.19801C61.6012 9.19801 65.924 13.2101 65.924 18.9028C65.924 24.5956 61.6012 28.6076 55.8734 28.6076C50.1455 28.6076 45.8228 24.5414 45.8228 18.9028ZM60.1962 18.9028C60.1962 16.2462 58.521 14.2944 55.8734 14.2944C53.2255 14.2944 51.5506 16.2462 51.5506 18.9028C51.5506 21.5595 53.2255 23.5113 55.8734 23.5113C58.521 23.5113 60.1962 21.6137 60.1962 18.9028ZM42.9048 11.8004V26.9811C42.9048 27.8486 42.4725 28.2281 41.8239 28.2281C40.8514 28.2281 39.5004 27.4148 38.5276 25.8968C37.0147 27.6318 34.8534 28.6076 32.5297 28.5533C30.3684 28.6076 28.3151 27.8486 26.694 26.3848C25.0188 24.7583 24.1001 22.2643 24.1001 18.686V11.8004C24.1001 10.4992 24.5864 9.90283 25.9913 9.90283H27.8827C29.2875 9.90283 29.7739 10.445 29.7739 11.8004V18.198C29.7739 20.3667 30.1522 21.5052 30.8546 22.2643C31.5031 22.9149 32.4756 23.2944 33.3943 23.2402C34.4211 23.2402 35.3936 22.8607 36.096 22.1016C36.7987 21.3426 37.1769 20.1498 37.1769 18.3065V11.8004C37.1769 10.445 37.7712 9.90283 39.0681 9.90283H40.9595C42.3102 9.90283 42.9048 10.445 42.9048 11.8004ZM20.2095 2.36669V26.9811C20.2095 27.8486 19.7772 28.2281 19.1288 28.2281C18.1562 28.2281 16.8052 27.4148 15.8326 25.9511C14.6438 27.3606 12.2122 28.6076 9.40228 28.6076C3.78253 28.6076 0 24.4872 0 18.9028C0 13.3185 3.89061 9.19801 9.40228 9.19801C11.2395 9.19801 13.0227 9.74018 14.5898 10.7703V8.16788C14.5898 3.66788 17.1295 1.1197 19.1828 1.1197C19.8313 1.1197 20.2095 1.55343 20.2095 2.36669ZM14.5898 18.9028C14.5898 16.1378 12.6445 14.2944 10.2128 14.2944C7.7812 14.2944 5.78186 16.1378 5.78186 18.9028C5.78186 21.6679 7.72716 23.5113 10.2128 23.5113C12.6985 23.5113 14.5898 21.7221 14.5898 18.9028Z" fill="black" fill-opacity="0.4"/>
</svg>
