<svg width="238" height="83" viewBox="0 0 238 83" fill="none" xmlns="http://www.w3.org/2000/svg">
<path d="M37.9645 4.94975C39.9171 2.99713 43.0829 2.99713 45.0355 4.94975L78.0502 37.9645C80.0029 39.9171 80.0029 43.0829 78.0503 45.0355L45.0355 78.0502C43.0829 80.0029 39.9171 80.0029 37.9645 78.0503L4.94975 45.0355C2.99713 43.0829 2.99713 39.9171 4.94975 37.9645L37.9645 4.94975Z" stroke="#49BBBD" stroke-width="2"/>
<path d="M23.898 32.62H29.8C30.7013 32.62 31.49 32.75 32.166 33.01C32.842 33.27 33.4053 33.6253 33.856 34.076C34.324 34.5267 34.6707 35.0553 34.896 35.662C35.1387 36.2687 35.26 36.9273 35.26 37.638C35.26 38.2967 35.156 38.8773 34.948 39.38C34.7573 39.8827 34.506 40.3247 34.194 40.706C33.882 41.0873 33.5353 41.408 33.154 41.668C32.7727 41.9107 32.4 42.11 32.036 42.266L36.17 49H32.556L29.15 42.838H26.992V49H23.898V32.62ZM26.992 40.368H28.578C29.566 40.368 30.3807 40.1687 31.022 39.77C31.6633 39.354 31.984 38.6693 31.984 37.716C31.984 36.8493 31.724 36.1907 31.204 35.74C30.7013 35.2893 29.956 35.064 28.968 35.064H26.992V40.368ZM38.4468 32.62H48.8468V35.116H41.6188V39.25H48.1708V41.72H41.6188V46.504H48.9248V49H38.4468V32.62ZM56.8215 32.36C57.7922 32.36 58.6675 32.4553 59.4475 32.646C60.2448 32.8193 60.9728 33.0707 61.6315 33.4L60.9035 35.844C60.1928 35.4973 59.5168 35.2373 58.8755 35.064C58.2342 34.8907 57.6015 34.804 56.9775 34.804C56.0935 34.804 55.4002 34.986 54.8975 35.35C54.4122 35.714 54.1695 36.208 54.1695 36.832C54.1695 37.4387 54.3688 37.9067 54.7675 38.236C55.1835 38.548 55.8422 38.8513 56.7435 39.146L58.3295 39.666C59.6815 40.1167 60.7128 40.7407 61.4235 41.538C62.1342 42.3353 62.4895 43.28 62.4895 44.372C62.4895 45.0827 62.3508 45.7327 62.0735 46.322C61.7962 46.9113 61.3975 47.4313 60.8775 47.882C60.3575 48.3153 59.7162 48.6533 58.9535 48.896C58.2082 49.1387 57.3588 49.26 56.4055 49.26C55.4695 49.26 54.5595 49.1733 53.6755 49C52.7915 48.8093 51.9422 48.5147 51.1275 48.116L51.8555 45.698C52.6008 46.062 53.3288 46.3393 54.0395 46.53C54.7502 46.7207 55.4955 46.816 56.2755 46.816C57.2115 46.816 57.9395 46.634 58.4595 46.27C58.9968 45.906 59.2655 45.3773 59.2655 44.684C59.2655 44.4413 59.2222 44.2073 59.1355 43.982C59.0488 43.7567 58.8928 43.5487 58.6675 43.358C58.4595 43.15 58.1648 42.9593 57.7835 42.786C57.4195 42.5953 56.9428 42.4047 56.3535 42.214L54.8975 41.72C53.7015 41.304 52.7395 40.758 52.0115 40.082C51.3008 39.3887 50.9455 38.418 50.9455 37.17C50.9455 35.7313 51.4482 34.57 52.4535 33.686C53.4588 32.802 54.9148 32.36 56.8215 32.36ZM65.4371 32.62H75.8371V35.116H68.6091V39.25H75.1611V41.72H68.6091V46.504H75.9151V49H65.4371V32.62ZM82.5378 42.604H87.0878L86.2298 40.186C85.9871 39.458 85.7531 38.7733 85.5278 38.132C85.3198 37.4907 85.1031 36.7887 84.8778 36.026H84.8258C84.5831 36.7367 84.3491 37.43 84.1238 38.106C83.8984 38.7647 83.6558 39.458 83.3958 40.186L82.5378 42.604ZM83.3178 32.62H86.4898L92.7038 49H89.3498L87.8938 44.97H81.7838L80.3278 49H77.0258L83.3178 32.62ZM94.814 32.62H100.716C101.617 32.62 102.406 32.75 103.082 33.01C103.758 33.27 104.321 33.6253 104.772 34.076C105.24 34.5267 105.587 35.0553 105.812 35.662C106.055 36.2687 106.176 36.9273 106.176 37.638C106.176 38.2967 106.072 38.8773 105.864 39.38C105.673 39.8827 105.422 40.3247 105.11 40.706C104.798 41.0873 104.451 41.408 104.07 41.668C103.689 41.9107 103.316 42.11 102.952 42.266L107.086 49H103.472L100.066 42.838H97.908V49H94.814V32.62ZM97.908 40.368H99.494C100.482 40.368 101.297 40.1687 101.938 39.77C102.579 39.354 102.9 38.6693 102.9 37.716C102.9 36.8493 102.64 36.1907 102.12 35.74C101.617 35.2893 100.872 35.064 99.884 35.064H97.908V40.368ZM117.137 46.764C117.952 46.764 118.636 46.6947 119.191 46.556C119.746 46.4173 120.248 46.2267 120.699 45.984L121.375 48.376C120.89 48.6187 120.274 48.8267 119.529 49C118.784 49.1733 117.874 49.26 116.799 49.26C115.62 49.26 114.52 49.0693 113.497 48.688C112.492 48.3067 111.616 47.7607 110.871 47.05C110.143 46.322 109.571 45.438 109.155 44.398C108.739 43.3407 108.531 42.1447 108.531 40.81C108.531 39.51 108.73 38.34 109.129 37.3C109.528 36.2427 110.091 35.35 110.819 34.622C111.564 33.894 112.448 33.3393 113.471 32.958C114.494 32.5593 115.629 32.36 116.877 32.36C117.986 32.36 118.896 32.4553 119.607 32.646C120.318 32.8367 120.924 33.062 121.427 33.322L120.699 35.714C120.179 35.454 119.65 35.246 119.113 35.09C118.576 34.934 117.952 34.856 117.241 34.856C116.513 34.856 115.82 34.9687 115.161 35.194C114.52 35.402 113.956 35.7487 113.471 36.234C113.003 36.702 112.622 37.3173 112.327 38.08C112.05 38.8253 111.911 39.7353 111.911 40.81C111.911 41.85 112.05 42.7513 112.327 43.514C112.604 44.2593 112.977 44.8747 113.445 45.36C113.913 45.8453 114.459 46.2007 115.083 46.426C115.724 46.6513 116.409 46.764 117.137 46.764ZM124.089 49V32.62H127.261V39.25H133.995V32.62H137.167V49H133.995V41.798H127.261V49H124.089ZM152.455 32.62C153.685 32.62 154.812 32.7847 155.835 33.114C156.857 33.4433 157.733 33.9373 158.461 34.596C159.206 35.2547 159.778 36.078 160.177 37.066C160.593 38.0367 160.801 39.172 160.801 40.472C160.801 41.98 160.558 43.28 160.073 44.372C159.587 45.4467 158.929 46.3307 158.097 47.024C157.265 47.7 156.294 48.2027 155.185 48.532C154.093 48.844 152.923 49 151.675 49H146.865V32.62H152.455ZM150.037 46.504H151.441C152.203 46.504 152.94 46.4173 153.651 46.244C154.379 46.0533 155.02 45.7327 155.575 45.282C156.129 44.8313 156.571 44.216 156.901 43.436C157.247 42.656 157.421 41.668 157.421 40.472C157.421 38.7387 156.927 37.4127 155.939 36.494C154.968 35.5753 153.651 35.116 151.987 35.116H150.037V46.504ZM163.775 32.62H174.175V35.116H166.947V39.25H173.499V41.72H166.947V46.504H174.253V49H163.775V32.62ZM184.727 46.764C185.541 46.764 186.226 46.6947 186.781 46.556C187.335 46.4173 187.838 46.2267 188.289 45.984L188.965 48.376C188.479 48.6187 187.864 48.8267 187.119 49C186.373 49.1733 185.463 49.26 184.389 49.26C183.21 49.26 182.109 49.0693 181.087 48.688C180.081 48.3067 179.206 47.7607 178.461 47.05C177.733 46.322 177.161 45.438 176.745 44.398C176.329 43.3407 176.121 42.1447 176.121 40.81C176.121 39.51 176.32 38.34 176.719 37.3C177.117 36.2427 177.681 35.35 178.409 34.622C179.154 33.894 180.038 33.3393 181.061 32.958C182.083 32.5593 183.219 32.36 184.467 32.36C185.576 32.36 186.486 32.4553 187.197 32.646C187.907 32.8367 188.514 33.062 189.017 33.322L188.289 35.714C187.769 35.454 187.24 35.246 186.703 35.09C186.165 34.934 185.541 34.856 184.831 34.856C184.103 34.856 183.409 34.9687 182.751 35.194C182.109 35.402 181.546 35.7487 181.061 36.234C180.593 36.702 180.211 37.3173 179.917 38.08C179.639 38.8253 179.501 39.7353 179.501 40.81C179.501 41.85 179.639 42.7513 179.917 43.514C180.194 44.2593 180.567 44.8747 181.035 45.36C181.503 45.8453 182.049 46.2007 182.673 46.426C183.314 46.6513 183.999 46.764 184.727 46.764ZM198.247 32.36C199.391 32.36 200.448 32.5507 201.419 32.932C202.39 33.296 203.222 33.842 203.915 34.57C204.626 35.2807 205.18 36.1647 205.579 37.222C205.978 38.262 206.177 39.4667 206.177 40.836C206.177 42.1707 205.969 43.358 205.553 44.398C205.154 45.438 204.591 46.322 203.863 47.05C203.152 47.7607 202.303 48.3067 201.315 48.688C200.344 49.0693 199.287 49.26 198.143 49.26C196.999 49.26 195.942 49.078 194.971 48.714C194 48.35 193.16 47.8127 192.449 47.102C191.756 46.3913 191.21 45.516 190.811 44.476C190.412 43.4187 190.213 42.2053 190.213 40.836C190.213 39.5013 190.412 38.314 190.811 37.274C191.227 36.2167 191.79 35.324 192.501 34.596C193.229 33.868 194.078 33.3133 195.049 32.932C196.037 32.5507 197.103 32.36 198.247 32.36ZM193.593 40.836C193.593 41.8587 193.714 42.7427 193.957 43.488C194.2 44.2333 194.529 44.8573 194.945 45.36C195.378 45.8453 195.872 46.2093 196.427 46.452C196.999 46.6947 197.606 46.816 198.247 46.816C198.888 46.816 199.486 46.6947 200.041 46.452C200.596 46.2093 201.072 45.8453 201.471 45.36C201.887 44.8573 202.208 44.2333 202.433 43.488C202.676 42.7427 202.797 41.8587 202.797 40.836C202.797 39.796 202.676 38.8947 202.433 38.132C202.19 37.3693 201.852 36.7453 201.419 36.26C201.003 35.7573 200.509 35.3933 199.937 35.168C199.382 34.9253 198.784 34.804 198.143 34.804C197.502 34.804 196.904 34.934 196.349 35.194C195.794 35.4367 195.309 35.8093 194.893 36.312C194.494 36.7973 194.174 37.4213 193.931 38.184C193.706 38.9467 193.593 39.8307 193.593 40.836ZM214.763 32.62C215.994 32.62 217.121 32.7847 218.143 33.114C219.166 33.4433 220.041 33.9373 220.769 34.596C221.515 35.2547 222.087 36.078 222.485 37.066C222.901 38.0367 223.109 39.172 223.109 40.472C223.109 41.98 222.867 43.28 222.381 44.372C221.896 45.4467 221.237 46.3307 220.405 47.024C219.573 47.7 218.603 48.2027 217.493 48.532C216.401 48.844 215.231 49 213.983 49H209.173V32.62H214.763ZM212.345 46.504H213.749C214.512 46.504 215.249 46.4173 215.959 46.244C216.687 46.0533 217.329 45.7327 217.883 45.282C218.438 44.8313 218.88 44.216 219.209 43.436C219.556 42.656 219.729 41.668 219.729 40.472C219.729 38.7387 219.235 37.4127 218.247 36.494C217.277 35.5753 215.959 35.116 214.295 35.116H212.345V46.504ZM226.084 32.62H236.484V35.116H229.256V39.25H235.808V41.72H229.256V46.504H236.562V49H226.084V32.62Z" fill="white"/>
</svg>
