<svg width="236" height="37" viewBox="0 0 236 37" fill="none" xmlns="http://www.w3.org/2000/svg">
<path d="M100.4 23.9397C98.0177 23.9397 95.4799 22.2998 95.4799 18.6686C95.4799 15.0373 98.0177 13.3974 100.4 13.3974C102.781 13.3974 105.319 15.0373 105.319 18.6686C105.319 22.2998 102.781 23.9397 100.4 23.9397ZM109.185 18.7076C109.185 13.007 104.929 9.64903 100.165 9.64903C95.4017 9.64903 91.5362 13.3974 91.5362 18.7076C91.5362 23.7835 95.0894 27.4928 99.6187 27.7661C100.321 27.8053 103.406 27.7661 105.827 25.1892H105.905L108.716 27.7661H109.263V18.8638C109.224 18.8638 109.185 18.7076 109.185 18.7076ZM135.384 0.94188C136.79 0.94188 137.922 2.0742 137.922 3.47983C137.922 4.88548 136.79 6.01781 135.384 6.01781C134.057 6.01781 132.924 4.88548 132.924 3.47983C132.924 2.0742 134.018 0.94188 135.384 0.94188ZM133.588 27.7661H137.259V9.68808H133.588V27.7661ZM153.658 21.5189C152.76 23.1979 151.042 23.9788 149.402 23.9788C147.02 23.9788 144.482 22.3388 144.482 18.7076C144.482 15.0764 147.02 13.4365 149.402 13.4365C151.042 13.4365 152.76 14.2174 153.658 15.8573L157.055 13.866C155.493 11.1328 152.642 9.57096 149.402 9.57096C144.638 9.57096 140.538 13.1241 140.538 18.6295C140.538 24.174 144.599 27.7271 149.402 27.7271C152.642 27.7271 155.493 26.1653 157.055 23.4321L153.658 21.5189ZM80.7597 9.29763C79.3539 9.29763 77.9874 9.68808 76.8942 10.3519C76.4257 10.6642 75.4884 11.367 75.0979 12.0699H75.0199C74.6294 11.367 73.6924 10.6642 73.2239 10.3519C72.0914 9.64903 70.7639 9.29763 69.3584 9.29763C65.1414 9.29763 61.7054 12.8117 61.7054 17.1067V27.6101H65.6099V17.1067C65.6099 14.9983 67.2889 13.2412 69.3974 13.2412C71.4667 13.2412 73.1847 14.9592 73.1847 17.1067V27.6101H77.0504V17.1067C77.0504 14.9983 78.7292 13.2412 80.8377 13.2412C82.9072 13.2412 84.6252 14.9592 84.6252 17.1067V27.6101H88.5297V17.1067C88.4127 12.7727 84.9767 9.29763 80.7597 9.29763ZM173.571 27.6101C169.822 27.6101 166.816 25.2673 166.816 20.9332V4.72931H170.603V20.6208C170.603 22.7293 171.775 23.7835 173.571 23.7835V27.6101ZM226.048 24.213C223.666 24.213 221.128 22.5731 221.128 18.9419C221.128 15.3106 223.666 13.6707 226.048 13.6707C228.43 13.6707 230.968 15.3106 230.968 18.9419C230.929 22.5731 228.391 24.213 226.048 24.213ZM234.911 18.9028C234.911 13.3974 230.851 9.84428 226.048 9.84428C221.48 9.84428 217.536 13.0851 217.185 18.1219V36.8248H220.855V25.4234C222.378 27.6491 225.345 27.9223 226.321 27.9613H226.673H226.634C230.812 27.8833 234.911 24.4473 234.911 18.9028ZM204.964 24.174C202.582 24.174 200.044 22.5341 200.044 18.9028C200.044 15.2716 202.582 13.6317 204.964 13.6317C207.345 13.6317 209.883 15.2716 209.883 18.9028C209.844 22.5731 207.306 24.174 204.964 24.174ZM213.71 18.9028C213.71 13.2022 209.454 9.84428 204.69 9.84428C199.927 9.84428 196.061 13.5926 196.061 18.9028C196.061 24.0569 199.692 27.7271 204.261 27.9613H204.612C205.159 27.9613 206.057 27.8833 207.111 27.4928C207.384 27.4148 207.619 27.2586 207.892 27.1413C208.634 26.7511 209.415 26.2043 210.117 25.4234H210.196L213.163 27.9223H213.71V18.9028ZM184.543 13.5146C186.924 13.5146 188.642 14.9202 189.345 16.8334H179.818C180.521 14.8421 182.239 13.5146 184.543 13.5146ZM188.681 22.0265C187.783 23.315 186.3 24.0959 184.543 24.0959C181.849 24.0959 180.013 22.3779 179.545 20.1133H193.367C193.406 19.7228 193.445 19.2933 193.445 18.9028C193.445 13.905 189.462 9.80523 184.543 9.80523C179.623 9.80523 175.64 13.905 175.64 18.9028C175.64 23.9007 179.623 28.0003 184.543 28.0003C187.822 28.0003 190.634 26.2043 192.196 23.5493L188.681 22.0265ZM120.937 23.9788C118.556 23.9788 116.018 22.3388 116.018 18.7076C116.018 15.0764 118.556 13.4365 120.937 13.4365C123.319 13.4365 125.896 15.0764 125.896 18.7076C125.935 22.3779 123.358 23.9788 120.937 23.9788ZM129.801 18.6686C129.801 13.1631 125.701 9.68808 120.937 9.68808C116.174 9.68808 112.074 13.2412 112.074 18.7467C112.074 24.2911 116.174 27.8443 120.664 27.8443H121.172C122.655 27.6881 124.1 27.1023 125.232 26.0873L125.467 25.853C125.74 25.5406 125.935 25.1501 126.013 24.7987V27.5318C126.013 27.5318 126.091 29.5623 124.764 31.1241C123.827 32.2956 122.343 32.8811 120.976 32.8811C119.219 32.8811 117.306 31.9441 116.486 29.9918L112.855 31.5146C114.261 34.7553 117.384 36.7076 120.898 36.7076C125.701 36.7076 129.762 33.1546 129.762 27.6491L129.801 18.6686ZM42.9634 14.2955C40.9722 6.60348 34.1002 0.902832 25.9397 0.902832C17.7792 0.902832 10.9072 6.60348 8.91583 14.2955C4.85511 17.8877 1.96573 22.6122 0.638184 27.8443C3.52756 26.8291 6.49501 26.0091 9.54056 25.4625C12.1176 32.1783 18.482 36.9028 25.9397 36.9028C33.4364 36.9028 39.8009 32.1783 42.3389 25.4625C45.6187 26.0873 48.5862 26.8681 51.2412 27.8443C49.9137 22.6122 47.0242 17.8877 42.9634 14.2955ZM20.5124 13.9831C19.7315 16.5211 17.4278 18.0048 15.3974 17.341C13.328 16.6772 12.3128 14.1393 13.0547 11.6013C13.7965 9.06336 16.1393 7.57963 18.1696 8.24341C20.2 8.86813 21.2542 11.4842 20.5124 13.9831ZM36.4039 17.341C34.3344 18.0048 32.0699 16.482 31.2889 13.9831C30.5079 11.4451 31.5622 8.90718 33.6317 8.24341C35.7012 7.57963 37.9657 9.10241 38.7467 11.6013C39.5667 14.1393 38.5124 16.6772 36.4039 17.341Z" fill="black" fill-opacity="0.4"/>
</svg>
