<svg width="141" height="37" viewBox="0 0 141 37" fill="none" xmlns="http://www.w3.org/2000/svg">
<path fill-rule="evenodd" clip-rule="evenodd" d="M61.4569 24.8008V6.46761C61.4569 3.40608 58.9714 0.902832 55.8919 0.902832H5.95296C2.89143 0.902832 0.388184 3.38807 0.388184 6.46761V24.8008C0.388184 27.8623 2.87343 30.3656 5.95296 30.3656H42.1149L51.9119 36.9028L49.9489 30.3656H55.9279C58.9714 30.3476 61.4747 27.8623 61.4569 24.8008ZM10.9415 19.326C11.2296 19.8303 11.6078 20.2265 12.094 20.4786C12.5803 20.7488 13.1025 20.8748 13.6968 20.8748C14.2911 20.8748 14.8314 20.7308 15.3177 20.4606C15.8039 20.1725 16.2001 19.7763 16.4702 19.272C16.7584 18.7498 16.9024 18.1735 16.9024 17.5071V9.27701C16.9024 9.15096 16.9385 9.06091 17.0105 8.98888C17.0825 8.91683 17.1726 8.88083 17.2986 8.88083H19.2976C19.4237 8.88083 19.5318 8.91683 19.6038 8.98888C19.6398 9.02488 19.6758 9.07891 19.6938 9.11493C19.7118 9.16896 19.7299 9.22298 19.7118 9.27701V17.4891C19.7118 18.8038 19.4417 19.9023 18.9014 20.8028C18.3612 21.6852 17.6408 22.3516 16.7404 22.7658C15.8399 23.198 14.8134 23.3961 13.6968 23.3961C12.5803 23.3961 11.5718 23.18 10.6533 22.7478C9.73486 22.3155 9.01451 21.6492 8.47423 20.7668C7.93396 19.8843 7.66383 18.7858 7.66383 17.4711V9.27701C7.66383 9.16896 7.69983 9.07891 7.77188 9.00688C7.80788 8.97086 7.84391 8.93486 7.87993 8.91683C7.91596 8.89883 7.96998 8.88083 8.02401 8.88083H10.1311C10.2571 8.88083 10.3652 8.91683 10.4192 8.98888C10.4732 9.06091 10.5092 9.15096 10.5092 9.27701V17.5071C10.5092 18.2095 10.6533 18.8218 10.9415 19.326ZM21.6028 20.7488C21.6028 20.8028 21.6208 20.8748 21.6388 20.9288C21.6748 21.0009 21.7108 21.0729 21.7469 21.145C22.1971 21.8473 22.8094 22.4056 23.5658 22.8018C24.3222 23.198 25.1866 23.3961 26.1412 23.3961C26.8974 23.3961 27.6357 23.252 28.3382 22.9819C29.0404 22.6937 29.5987 22.2795 30.0489 21.7032C30.4812 21.145 30.6974 20.4606 30.6974 19.6502C30.6974 18.8038 30.4272 18.0294 29.8869 17.3631C29.3467 16.6787 28.5362 16.1925 27.4377 15.8503C27.2937 15.7963 27.1677 15.7603 27.0414 15.7242C26.9154 15.6882 26.8074 15.6522 26.7174 15.6342C26.1772 15.4901 25.7809 15.3641 25.5287 15.256C25.2766 15.148 25.0605 15.0219 24.9165 14.8778C24.7544 14.7157 24.6823 14.5176 24.6823 14.2475C24.6823 13.9053 24.8264 13.6352 25.1145 13.4191C25.4027 13.203 25.7989 13.0949 26.3032 13.0949C26.7894 13.0949 27.1857 13.185 27.5097 13.3471C27.8339 13.5091 28.1399 13.7793 28.4462 14.1214C28.5542 14.2475 28.6444 14.3195 28.7524 14.3195C28.8244 14.3195 28.9144 14.2835 29.0044 14.1935L30.1389 13.257C30.2652 13.149 30.3372 13.0589 30.3372 12.9689C30.3372 12.8968 30.2832 12.7888 30.1932 12.6447C29.7609 12.1044 29.2207 11.6362 28.5722 11.276C27.9239 10.8978 27.1497 10.7177 26.2312 10.7177C25.3847 10.7177 24.6463 10.8798 23.998 11.222C23.3497 11.5642 22.8634 11.9964 22.5032 12.5367C22.1611 13.0769 21.981 13.6172 21.981 14.1755C21.981 14.8598 22.107 15.4541 22.3772 15.9404C22.6473 16.4266 23.0435 16.8408 23.5838 17.183C24.1241 17.5251 24.8264 17.8313 25.7089 18.1014C26.0869 18.2095 26.3212 18.2815 26.3752 18.2995C26.8074 18.4256 27.1314 18.5337 27.3297 18.6237C27.5457 18.7137 27.7079 18.8218 27.8159 18.9839C27.9419 19.146 27.9959 19.3621 27.9959 19.6502C27.9959 19.9203 27.8879 20.1725 27.6899 20.3886C27.4737 20.6047 27.2217 20.7668 26.8974 20.8928C26.5912 21.0009 26.2492 21.0729 25.9249 21.0729C25.3847 21.0729 24.9345 20.9469 24.5743 20.6947C24.2141 20.4426 23.8719 20.1004 23.5658 19.6682C23.4577 19.5241 23.3497 19.4521 23.2236 19.4521C23.1516 19.4521 23.0795 19.4881 23.0075 19.5241L21.7649 20.4066C21.6568 20.5146 21.6028 20.6227 21.6028 20.7488ZM41.9349 19.7222C42.0429 19.7222 42.1149 19.7583 42.1692 19.8483L43.1597 21.0549C43.2317 21.163 43.2857 21.253 43.2857 21.3431C43.2857 21.4511 43.2317 21.5412 43.1417 21.6312C42.4212 22.2615 41.7189 22.7117 40.9984 22.9999C40.2962 23.27 39.5217 23.4141 38.7114 23.4141C37.6127 23.4141 36.5682 23.1259 35.5957 22.5677C34.6232 21.9914 33.8489 21.235 33.2727 20.2625C32.6964 19.29 32.4082 18.2455 32.4082 17.1109C32.4082 15.9584 32.6784 14.8958 33.2187 13.9414C33.7589 12.9689 34.4972 12.2125 35.4517 11.6362C36.4062 11.0599 37.4687 10.7898 38.6392 10.7898C39.5937 10.7898 40.5302 11.0239 41.4667 11.4921C42.4032 11.9604 43.1777 12.6627 43.7899 13.6172C44.4022 14.5717 44.7084 15.7423 44.7084 17.129C44.7084 17.4351 44.6724 17.6692 44.6002 17.8133C44.5282 17.9574 44.4202 18.0474 44.3122 18.0654C44.1862 18.1014 43.9879 18.1194 43.7359 18.1014H35.0914C35.2177 18.6777 35.4697 19.182 35.8119 19.6142C36.1542 20.0464 36.5862 20.3886 37.0904 20.6227C37.5947 20.8568 38.1349 20.9829 38.7114 20.9829C39.1617 20.9829 39.5397 20.9288 39.8819 20.8388C40.2062 20.7488 40.4762 20.6407 40.6924 20.5146C40.9444 20.3706 41.1787 20.2085 41.3947 20.0284L41.6829 19.8123C41.7729 19.7403 41.8629 19.7222 41.9349 19.7222ZM37.1627 13.4731C36.6944 13.7072 36.2982 14.0314 35.9559 14.4276C35.6137 14.8238 35.3617 15.274 35.1817 15.7783H42.0429C41.7549 14.9859 41.3047 14.3376 40.7104 13.8513C40.1159 13.3651 39.4137 13.131 38.6392 13.131C38.1349 13.1129 37.6307 13.239 37.1627 13.4731ZM48.7064 10.8798H47.3197C47.0674 10.8798 46.9414 11.0239 46.9414 11.294V22.7838C46.9414 23.0539 47.0674 23.18 47.3197 23.18H49.3007C49.5707 23.18 49.6969 23.0539 49.6969 22.7838V16.0484C49.6969 15.4361 49.8049 14.9319 50.0389 14.5176C50.2732 14.1034 50.5612 13.7973 50.9394 13.5992C51.2997 13.4011 51.6959 13.293 52.1099 13.293C52.5242 13.293 52.9024 13.3651 53.2627 13.5091C53.6227 13.6712 53.9649 13.8513 54.2892 14.0674C54.3972 14.1395 54.5052 14.1935 54.5952 14.1935C54.7034 14.1935 54.7754 14.1395 54.8654 14.0314L55.7659 12.7528C55.8379 12.6627 55.8739 12.5727 55.8739 12.4826C55.8739 12.3566 55.8019 12.2305 55.6579 12.0864C55.2977 11.7803 54.8294 11.4741 54.2532 11.186C53.6949 10.8978 53.0824 10.7538 52.4162 10.7538C51.8039 10.7538 51.2457 10.8978 50.7414 11.186C50.2372 11.4741 49.8229 11.8703 49.4987 12.3926L49.3007 11.3301C49.2647 11.132 49.2107 11.0059 49.1024 10.9519C49.0124 10.8978 48.8864 10.8798 48.7064 10.8798Z" fill="black" fill-opacity="0.4"/>
<path d="M65.0046 8.88086H75.3059C75.5579 8.88086 75.6842 9.00693 75.6842 9.25906V11.078C75.6842 11.3301 75.5579 11.4742 75.3059 11.4742H71.5059V22.8018C71.5059 23.054 71.3799 23.18 71.1276 23.18H69.0566C68.8046 23.18 68.6787 23.054 68.6787 22.8018V11.4562H64.9866C64.7346 11.4562 64.6084 11.3301 64.6084 11.06V9.25906C64.6264 9.00693 64.7526 8.88086 65.0046 8.88086Z" fill="black" fill-opacity="0.4"/>
<path d="M84.8866 19.7225C84.9946 19.7225 85.0666 19.7585 85.1206 19.8486L86.1111 21.0552C86.1831 21.1632 86.2371 21.2533 86.2371 21.3433C86.2371 21.4514 86.1831 21.5414 86.0931 21.6315C85.3729 22.2618 84.6704 22.712 83.9501 23.0001C83.2296 23.2883 82.4734 23.4144 81.6629 23.4144C80.5644 23.4144 79.5199 23.1262 78.5474 22.5679C77.5749 21.9916 76.8006 21.2353 76.2241 20.2628C75.6479 19.2903 75.3599 18.2458 75.3599 17.1112C75.3599 15.9586 75.6299 14.8961 76.1701 13.9416C76.7104 12.9691 77.4489 12.2128 78.4034 11.6365C79.3579 11.0602 80.4204 10.79 81.5909 10.79C82.5454 10.79 83.4999 11.0242 84.4184 11.4924C85.3549 11.9606 86.1291 12.663 86.7414 13.6175C87.3539 14.5719 87.6599 15.7425 87.6599 17.1292C87.6599 17.4354 87.6239 17.6695 87.5519 17.8136C87.4799 17.9576 87.3719 18.0477 87.2639 18.0657C87.1376 18.1017 86.9396 18.1197 86.6874 18.1197H78.0611C78.1871 18.696 78.4394 19.2002 78.7816 19.6325C79.1236 20.0647 79.5559 20.4069 80.0601 20.641C80.5644 20.8751 81.1046 21.0011 81.6989 21.0011C82.1491 21.0011 82.5274 20.9471 82.8696 20.8571C83.1936 20.767 83.4639 20.659 83.6799 20.5329C83.9321 20.3888 84.1661 20.2268 84.3824 20.0467L84.6704 19.8306C84.7064 19.7405 84.7966 19.7225 84.8866 19.7225ZM80.0961 13.4734C79.6279 13.7075 79.2316 14.0317 78.8896 14.4279C78.5474 14.8241 78.2954 15.2743 78.1151 15.7785H84.9946C84.7064 14.9861 84.2564 14.3378 83.6619 13.8516C83.0676 13.3653 82.3654 13.1312 81.5729 13.1312C81.0686 13.1132 80.5464 13.2393 80.0961 13.4734Z" fill="black" fill-opacity="0.4"/>
<path d="M88.4881 20.9287C88.4701 20.8747 88.4521 20.8026 88.4521 20.7486C88.4521 20.6225 88.5061 20.5145 88.6144 20.4064L89.8389 19.47C89.8929 19.4159 89.9649 19.3799 90.0551 19.3979C90.1811 19.3979 90.3071 19.47 90.3971 19.614C90.7034 20.0462 91.0456 20.3884 91.4056 20.6405C91.7659 20.8927 92.2161 21.0187 92.7564 21.0187C93.0986 21.0187 93.4226 20.9647 93.7289 20.8386C94.0531 20.7126 94.3231 20.5505 94.5211 20.3344C94.7194 20.1183 94.8274 19.8662 94.8274 19.596C94.8274 19.3079 94.7734 19.0918 94.6474 18.9297C94.5211 18.7676 94.3591 18.6596 94.1611 18.5695C93.9629 18.4795 93.6389 18.3714 93.2066 18.2453C93.1346 18.2273 92.9184 18.1733 92.5404 18.0472C91.6579 17.7771 90.9554 17.471 90.4151 17.1288C89.8749 16.7866 89.4786 16.3724 89.2086 15.8862C88.9384 15.3999 88.8124 14.8056 88.8124 14.1213C88.8124 13.563 88.9924 13.0227 89.3346 12.4825C89.6769 11.9422 90.1811 11.51 90.8294 11.1678C91.4776 10.8256 92.2161 10.6636 93.0626 10.6636C93.9629 10.6636 94.7554 10.8436 95.4036 11.2218C96.0521 11.6 96.5924 12.0502 97.0246 12.5905C97.1326 12.7166 97.1686 12.8246 97.1686 12.9147C97.1686 13.0047 97.0966 13.1128 96.9704 13.2028L95.8359 14.1393C95.7279 14.2113 95.6559 14.2654 95.5839 14.2654C95.4936 14.2654 95.3856 14.1933 95.2776 14.0673C94.9894 13.7251 94.6654 13.473 94.3411 13.2929C94.0169 13.1308 93.6029 13.0407 93.1346 13.0407C92.6304 13.0407 92.2341 13.1488 91.9459 13.3649C91.6579 13.581 91.5136 13.8511 91.5136 14.1933C91.5136 14.4635 91.5859 14.6616 91.7479 14.8236C91.9099 14.9857 92.1081 15.1118 92.3601 15.2018C92.6124 15.3099 93.0264 15.4179 93.5489 15.58C93.6569 15.598 93.7649 15.634 93.8729 15.6701C93.9989 15.7061 94.1251 15.7421 94.2691 15.7961C95.3676 16.1203 96.1781 16.6245 96.7184 17.3089C97.2586 17.9932 97.5286 18.7496 97.5286 19.596C97.5286 20.3884 97.3126 21.0728 96.8804 21.6491C96.4481 22.2073 95.8719 22.6395 95.1696 22.9277C94.4671 23.2158 93.7289 23.3599 92.9724 23.3419C92.0179 23.3419 91.1536 23.1438 90.3971 22.7476C89.6409 22.3514 89.0466 21.7931 88.5784 21.0908C88.5604 21.0728 88.5244 21.0007 88.4881 20.9287Z" fill="black" fill-opacity="0.4"/>
<path d="M104.138 10.9701C104.408 10.9701 104.552 11.1142 104.552 11.3844V12.9692C104.552 13.0952 104.516 13.2033 104.426 13.2753C104.336 13.3473 104.228 13.3834 104.102 13.3834H102.715V19.3804C102.715 19.8126 102.787 20.1547 102.949 20.4249C103.111 20.677 103.382 20.8211 103.76 20.8391L104.066 20.8571C104.282 20.8751 104.426 20.9291 104.48 21.0372C104.534 21.1452 104.57 21.2713 104.552 21.3974V22.7661C104.552 23.0902 104.3 23.2523 103.814 23.2523C103.057 23.2523 102.391 23.1082 101.815 22.8201C101.221 22.5319 100.77 22.1177 100.446 21.5774C100.122 21.0372 99.9599 20.4069 99.9599 19.6865V13.4014H98.8435C98.7355 13.4014 98.6272 13.3653 98.5552 13.2933C98.4652 13.2213 98.4292 13.1132 98.4292 12.9872V11.4204C98.4292 11.2763 98.4652 11.1682 98.5552 11.0782C98.6272 11.0062 98.7355 10.9701 98.8435 10.9701H99.9599V8.95315C99.9599 8.80908 99.978 8.71902 100.032 8.647C100.086 8.57495 100.194 8.53895 100.338 8.48492L102.301 7.90862C102.337 7.89062 102.373 7.89062 102.409 7.89062C102.445 7.89062 102.499 7.90862 102.535 7.92662C102.571 7.94465 102.607 7.98067 102.625 8.01667C102.679 8.08873 102.697 8.19677 102.697 8.32282V10.9521L104.138 10.9701Z" fill="black" fill-opacity="0.4"/>
<path d="M107.182 6.48584H108.857C109.217 6.48584 109.397 6.68394 109.397 7.09816V8.79099C109.397 8.98909 109.361 9.13316 109.271 9.20521C109.181 9.27724 109.037 9.33126 108.857 9.33126H107.182C106.786 9.33126 106.587 9.15119 106.587 8.79099V7.09816C106.587 6.68394 106.786 6.48584 107.182 6.48584ZM106.786 10.9881C106.858 10.9161 106.948 10.88 107.056 10.88H109.091C109.199 10.88 109.289 10.9161 109.361 10.9881C109.433 11.0601 109.469 11.1502 109.469 11.2762V22.784C109.469 23.0361 109.343 23.1802 109.091 23.1802H107.056C106.804 23.1802 106.678 23.0541 106.678 22.784V11.2762C106.678 11.1502 106.714 11.0601 106.786 10.9881Z" fill="black" fill-opacity="0.4"/>
<path d="M114.223 23.0721C114.115 23.1441 113.971 23.1802 113.845 23.1802H112.08C111.81 23.1802 111.666 23.0361 111.666 22.7659V11.2762C111.666 11.0061 111.81 10.862 112.08 10.862H113.377C113.503 10.862 113.647 10.916 113.737 11.0061C113.845 11.0961 113.917 11.2222 113.953 11.3482L114.115 12.7349C114.583 12.0686 115.141 11.5824 115.808 11.2582C116.474 10.934 117.194 10.772 117.933 10.772C118.671 10.772 119.392 10.952 120.094 11.3302C120.796 11.7084 121.373 12.2847 121.841 13.0591C122.291 13.8335 122.525 14.806 122.525 15.9585V22.7479C122.525 23.0181 122.399 23.1441 122.147 23.1441H120.22C119.95 23.1441 119.806 23.0181 119.806 22.7479V16.0486C119.806 15.5804 119.698 15.1481 119.464 14.7339C119.229 14.3197 118.905 13.9776 118.509 13.7254C118.095 13.4733 117.645 13.3472 117.14 13.3472C116.708 13.3472 116.276 13.4553 115.862 13.6894C115.43 13.9235 115.087 14.2477 114.817 14.6799C114.547 15.1121 114.403 15.6164 114.403 16.1747V22.7299C114.385 22.892 114.331 22.9821 114.223 23.0721Z" fill="black" fill-opacity="0.4"/>
<path d="M135.888 24.3325C135.348 25.305 134.627 26.0433 133.691 26.5476C132.754 27.0518 131.674 27.2861 130.467 27.2861C129.657 27.2861 128.864 27.1418 128.09 26.8718C127.298 26.6016 126.631 26.2236 126.073 25.7552C125.965 25.6652 125.911 25.5752 125.911 25.4671C125.911 25.3951 125.947 25.305 126.037 25.179L126.847 24.0084C126.937 23.8823 127.046 23.8103 127.19 23.8103C127.298 23.8103 127.406 23.8463 127.532 23.9363C128.378 24.5306 129.423 24.8188 130.701 24.8188C131.35 24.8188 131.926 24.6747 132.43 24.3866C132.934 24.1164 133.349 23.7022 133.619 23.198C133.907 22.6937 134.051 22.1174 134.051 21.4691V21.4331C133.511 22.0094 132.934 22.4416 132.34 22.7297C131.746 23.0179 131.043 23.1619 130.251 23.1619C129.189 23.1619 128.18 22.9098 127.262 22.3695C126.325 21.8473 125.587 21.1089 125.028 20.1724C124.47 19.236 124.182 18.1734 124.2 16.9849C124.2 15.8683 124.47 14.8238 125.028 13.8693C125.587 12.9148 126.325 12.1404 127.262 11.5641C128.198 10.9879 129.189 10.6997 130.251 10.6997C131.782 10.6997 133.097 11.294 134.195 12.4646L134.357 11.33C134.375 11.1499 134.429 11.0239 134.501 10.9518C134.573 10.8798 134.681 10.8438 134.825 10.8438H136.374C136.608 10.8438 136.734 10.9879 136.734 11.258V20.7127C136.68 22.1714 136.41 23.36 135.888 24.3325ZM133.619 15.1299C133.295 14.5536 132.862 14.0854 132.304 13.7432C131.746 13.4011 131.134 13.221 130.431 13.221C129.711 13.221 129.081 13.4011 128.522 13.7432C127.964 14.0854 127.55 14.5536 127.226 15.1479C126.919 15.7422 126.757 16.3725 126.757 17.0749C126.757 17.8133 126.919 18.4616 127.244 19.0379C127.568 19.6142 128.018 20.0644 128.576 20.3886C129.135 20.7127 129.765 20.8748 130.449 20.8748C131.134 20.8748 131.746 20.7127 132.286 20.3705C132.826 20.0284 133.259 19.5601 133.583 18.9839C133.889 18.3896 134.051 17.7592 134.051 17.0749C134.087 16.3545 133.925 15.7062 133.619 15.1299Z" fill="black" fill-opacity="0.4"/>
<path d="M139.022 10.8799C138.247 10.8799 137.617 11.5102 137.617 12.2846C137.617 13.059 138.247 13.6893 139.022 13.6893C139.796 13.6893 140.426 13.059 140.426 12.2846C140.426 11.5282 139.796 10.8799 139.022 10.8799ZM139.022 13.4011C138.427 13.4011 137.923 12.8969 137.923 12.2846C137.923 11.6723 138.427 11.168 139.022 11.168C139.616 11.168 140.12 11.6543 140.12 12.2846C140.12 12.8969 139.616 13.4011 139.022 13.4011Z" fill="black" fill-opacity="0.4"/>
<path d="M138.481 11.5283C138.481 11.5283 138.499 11.5103 138.517 11.5103H139.165C139.256 11.5103 139.346 11.5283 139.418 11.5823C139.49 11.6363 139.544 11.6903 139.598 11.7624C139.634 11.8344 139.67 11.9245 139.67 12.0145C139.67 12.1046 139.652 12.1766 139.598 12.2666C139.544 12.3387 139.49 12.4107 139.4 12.4467L139.688 13.005V13.023V13.041H139.67H139.4C139.382 13.041 139.382 13.041 139.364 13.041C139.364 13.041 139.346 13.023 139.346 13.005L139.093 12.5008H138.787V12.987C138.787 13.023 138.769 13.023 138.751 13.023H138.535C138.499 13.023 138.499 13.005 138.499 12.987V11.5283C138.463 11.5463 138.463 11.5283 138.481 11.5283ZM138.769 12.2666H139.093C139.147 12.2666 139.183 12.2486 139.22 12.2306C139.256 12.2126 139.292 12.1766 139.31 12.1406C139.328 12.1046 139.346 12.0685 139.346 12.0145C139.346 11.9785 139.328 11.9245 139.31 11.8884C139.292 11.8524 139.256 11.8164 139.22 11.7984C139.183 11.7804 139.147 11.7624 139.093 11.7624H138.769V12.2666Z" fill="black" fill-opacity="0.4"/>
</svg>
